<?xml version="1.0" encoding="UTF-8"?>
<svg width="100" height="100" viewBox="0 0 100 100" xmlns="http://www.w3.org/2000/svg">
  <defs>
    <linearGradient id="bgGrad" x1="0%" y1="0%" x2="100%" y2="100%">
      <stop offset="0%" style="stop-color:#667eea;stop-opacity:1" />
      <stop offset="100%" style="stop-color:#764ba2;stop-opacity:1" />
    </linearGradient>
  </defs>
  <rect width="100" height="100" rx="20" fill="url(#bgGrad)"/>
  <g transform="translate(50,45)">
    <path d="M0,-28 L4,-28 L5,-24 L8,-23 L11,-26 L14,-23 L12,-19 L14,-16 L18,-16 L19,-12 L15,-10 L15,-7 L19,-5 L18,0 L14,0 L12,3 L14,7 L11,10 L8,7 L5,8 L4,12 L0,12 L-4,12 L-5,8 L-8,7 L-11,10 L-14,7 L-12,3 L-14,0 L-18,0 L-19,-5 L-15,-7 L-15,-10 L-19,-12 L-18,-16 L-14,-16 L-12,-19 L-14,-23 L-11,-26 L-8,-23 L-5,-24 L-4,-28 Z" fill="white" stroke="#444" stroke-width="1"/>
    <circle cx="0" cy="-8" r="8" fill="#667eea"/>
    <circle cx="0" cy="-8" r="4" fill="#444"/>
  </g>
  <path d="M50,68 L30,58 L30,75 Q30,88 50,95 Q70,88 70,75 L70,58 Z" fill="none" stroke="white" stroke-width="3" opacity="0.9"/>
  <path d="M40,76 L47,83 L60,70" fill="none" stroke="#4ade80" stroke-width="4" stroke-linecap="round" stroke-linejoin="round"/>
</svg>
